<svg xmlns="http://www.w3.org/2000/svg" xmlns:xlink="http://www.w3.org/1999/xlink" xmlns:lucid="lucid" width="2741" height="1428"><g transform="translate(2040.5 1120.5)" lucid:page-tab-id="0_0"><path d="M-980-175a5 5 0 0 1 5-5h270a5 5 0 0 1 5 5V26a5 5 0 0 1-5 5h-270a5 5 0 0 1-5-5z" fill="#fff"/><path d="M-980-140v-35a5 5 0 0 1 5-5h270a5 5 0 0 1 5 5v35" fill="#dedeff"/><path d="M-980-175a5 5 0 0 1 5-5h270a5 5 0 0 1 5 5V26a5 5 0 0 1-5 5h-270a5 5 0 0 1-5-5zM-980-140h280M-840-140V31" stroke="#282c33" fill="none"/><use xlink:href="#a" transform="matrix(1,0,0,1,-969.9999993957059,-180) translate(0 23.6)"/><use xlink:href="#b" transform="matrix(1,0,0,1,-974.9999993957059,-137.5) translate(0 38.6)"/><use xlink:href="#c" transform="matrix(1,0,0,1,-834.9999993957059,-137.5) translate(0 17)"/><use xlink:href="#d" transform="matrix(1,0,0,1,-834.9999993957059,-137.5) translate(0 38.6)"/><use xlink:href="#e" transform="matrix(1,0,0,1,-834.9999993957059,-137.5) translate(0 60.2)"/><use xlink:href="#f" transform="matrix(1,0,0,1,-974.9999993957059,-62.5) translate(0 17.1)"/><use xlink:href="#g" transform="matrix(1,0,0,1,-834.9999993957059,-62.5) translate(0 17.1)"/><use xlink:href="#h" transform="matrix(1,0,0,1,-974.9999993957059,-30.5) translate(0 17.1)"/><use xlink:href="#g" transform="matrix(1,0,0,1,-834.9999993957059,-30.5) translate(0 17.1)"/><use xlink:href="#i" transform="matrix(1,0,0,1,-974.9999993957059,1.5) translate(0 17.1)"/><use xlink:href="#j" transform="matrix(1,0,0,1,-834.9999993957059,1.5) translate(0 17.1)"/><use xlink:href="#k" transform="matrix(1,0,0,1,-834.9999993957059,1.5) translate(47.9 17.1)"/><path d="M-620 145a5 5 0 0 1 5-5h270a5 5 0 0 1 5 5v137a5 5 0 0 1-5 5h-270a5 5 0 0 1-5-5z" fill="#fff"/><path d="M-620 180v-35a5 5 0 0 1 5-5h270a5 5 0 0 1 5 5v35" fill="#dedeff"/><path d="M-620 145a5 5 0 0 1 5-5h270a5 5 0 0 1 5 5v137a5 5 0 0 1-5 5h-270a5 5 0 0 1-5-5zM-620 180h280M-480 180v107" stroke="#282c33" fill="none"/><use xlink:href="#l" transform="matrix(1,0,0,1,-610,140) translate(0 23.6)"/><use xlink:href="#i" transform="matrix(1,0,0,1,-615,182.5) translate(0 38.6)"/><use xlink:href="#c" transform="matrix(1,0,0,1,-475,182.5) translate(0 17)"/><use xlink:href="#m" transform="matrix(1,0,0,1,-475,182.5) translate(0 38.6)"/><use xlink:href="#e" transform="matrix(1,0,0,1,-475,182.5) translate(0 60.2)"/><use xlink:href="#f" transform="matrix(1,0,0,1,-615,257.5) translate(0 17.1)"/><use xlink:href="#g" transform="matrix(1,0,0,1,-475,257.5) translate(0 17.1)"/><path d="M-1560-232.7a5 5 0 0 1 5-5h270a5 5 0 0 1 5 5v169a5 5 0 0 1-5 5h-270a5 5 0 0 1-5-5z" fill="#fff"/><path d="M-1560-197.7v-35a5 5 0 0 1 5-5h270a5 5 0 0 1 5 5v35" fill="#dedeff"/><path d="M-1560-232.7a5 5 0 0 1 5-5h270a5 5 0 0 1 5 5v169a5 5 0 0 1-5 5h-270a5 5 0 0 1-5-5zM-1560-197.7h280M-1420-197.7v139" stroke="#282c33" fill="none"/><use xlink:href="#n" transform="matrix(1,0,0,1,-1550,-237.70535988204645) translate(0 23.6)"/><use xlink:href="#o" transform="matrix(1,0,0,1,-1555,-195.20535988204645) translate(0 38.6)"/><use xlink:href="#c" transform="matrix(1,0,0,1,-1415,-195.20535988204645) translate(0 17)"/><use xlink:href="#m" transform="matrix(1,0,0,1,-1415,-195.20535988204645) translate(0 38.6)"/><use xlink:href="#e" transform="matrix(1,0,0,1,-1415,-195.20535988204645) translate(0 60.2)"/><use xlink:href="#p" transform="matrix(1,0,0,1,-1555,-120.20535988204645) translate(0 17.1)"/><use xlink:href="#g" transform="matrix(1,0,0,1,-1415,-120.20535988204645) translate(0 17.1)"/><use xlink:href="#b" transform="matrix(1,0,0,1,-1555,-88.20535988204645) translate(0 17.1)"/><use xlink:href="#j" transform="matrix(1,0,0,1,-1415,-88.20535988204645) translate(0 17.1)"/><use xlink:href="#k" transform="matrix(1,0,0,1,-1415,-88.20535988204645) translate(47.9 17.1)"/><path d="M-1640-685a5 5 0 0 1 5-5h270a5 5 0 0 1 5 5v137a5 5 0 0 1-5 5h-270a5 5 0 0 1-5-5z" fill="#fff"/><path d="M-1640-650v-35a5 5 0 0 1 5-5h270a5 5 0 0 1 5 5v35" fill="#dedeff"/><path d="M-1640-685a5 5 0 0 1 5-5h270a5 5 0 0 1 5 5v137a5 5 0 0 1-5 5h-270a5 5 0 0 1-5-5zM-1640-650h280M-1500-650v107" stroke="#282c33" fill="none"/><use xlink:href="#q" transform="matrix(1,0,0,1,-1630,-690.0143343694323) translate(0 23.6)"/><use xlink:href="#r" transform="matrix(1,0,0,1,-1635,-647.5143343694323) translate(0 38.6)"/><use xlink:href="#c" transform="matrix(1,0,0,1,-1495,-647.5143343694323) translate(0 17)"/><use xlink:href="#d" transform="matrix(1,0,0,1,-1495,-647.5143343694323) translate(0 38.6)"/><use xlink:href="#e" transform="matrix(1,0,0,1,-1495,-647.5143343694323) translate(0 60.2)"/><use xlink:href="#f" transform="matrix(1,0,0,1,-1635,-572.5143343694323) translate(0 17.1)"/><use xlink:href="#g" transform="matrix(1,0,0,1,-1495,-572.5143343694323) translate(0 17.1)"/><path d="M-2020-35.7a5 5 0 0 1 5-5h270a5 5 0 0 1 5 5v94a5 5 0 0 1-5 5h-270a5 5 0 0 1-5-5z" fill="#fff"/><path d="M-2020-.7v-35a5 5 0 0 1 5-5h270a5 5 0 0 1 5 5v35" fill="#dedeff"/><path d="M-2020-35.7a5 5 0 0 1 5-5h270a5 5 0 0 1 5 5v94a5 5 0 0 1-5 5h-270a5 5 0 0 1-5-5zM-2020-.7h280M-1880-.7v64" stroke="#282c33" fill="none"/><use xlink:href="#s" transform="matrix(1,0,0,1,-2010,-40.69470208222296) translate(0 23.6)"/><use xlink:href="#r" transform="matrix(1,0,0,1,-2015,1.8052979177770396) translate(0 17.1)"/><use xlink:href="#t" transform="matrix(1,0,0,1,-1875,1.8052979177770396) translate(0 17.1)"/><use xlink:href="#b" transform="matrix(1,0,0,1,-2015,33.80529791777704) translate(0 17.1)"/><use xlink:href="#t" transform="matrix(1,0,0,1,-1875,33.80529791777704) translate(0 17.1)"/><path d="M-1000.5-160.3H-1240" stroke="#3a414a" fill="none"/><path d="M-1000.5-170.3v20M-980.5-160.3h-20" stroke="#3a414a" fill="#fff"/><path d="M-1279.28-170.3l20 10-20 10" stroke="#3a414a" fill="#fff" fill-opacity="0"/><path d="M-1279.28-160.3h20M-1239.28-160.3c0 5.52-4.47 10-10 10-5.52 0-10-4.48-10-10 0-5.53 4.48-10 10-10 5.53 0 10 4.47 10 10" stroke="#3a414a" fill="#fff"/><path d="M-640.5 255.32h-191.82a12 12 0 0 1-12-12V71" stroke="#3a414a" fill="none"/><path d="M-640.5 245.32v20M-620.5 255.32h-20" stroke="#3a414a" fill="#fff"/><path d="M-834.32 31.72l-10 20-10-20" stroke="#3a414a" fill="#fff" fill-opacity="0"/><path d="M-844.32 31.72v20M-834.32 61.72c0 5.53-4.48 10-10 10s-10-4.47-10-10c0-5.52 4.48-10 10-10s10 4.48 10 10" stroke="#3a414a" fill="#fff"/><path d="M-1000.5 15.32h-719" stroke="#3a414a" fill="none"/><path d="M-990.5 5.32v20M-980.5 15.32h-20M-1000.5 5.32v20" stroke="#3a414a" fill="#fff"/><path d="M-1739.28 5.32l20 10-20 10" stroke="#3a414a" fill="#fff" fill-opacity="0"/><path d="M-1739.28 15.32h20M-1719.28 25.32v-20" stroke="#3a414a" fill="#fff"/><path d="M-1660.5-612.5H-1868a12 12 0 0 0-12 12v539.3" stroke="#3a414a" fill="none"/><path d="M-1650.5-622.5v20M-1640.5-612.5h-20M-1660.5-622.5v20" stroke="#3a414a" fill="#fff"/><path d="M-1890-41.42l10-20 10 20" stroke="#3a414a" fill="#fff" fill-opacity="0"/><path d="M-1880-41.42v-20M-1870-61.42h-20" stroke="#3a414a" fill="#fff"/><path d="M0-563a5 5 0 0 1 5-5h270a5 5 0 0 1 5 5v201a5 5 0 0 1-5 5H5a5 5 0 0 1-5-5z" fill="#fff"/><path d="M0-528v-35a5 5 0 0 1 5-5h270a5 5 0 0 1 5 5v35" fill="#dedeff"/><path d="M0-563a5 5 0 0 1 5-5h270a5 5 0 0 1 5 5v201a5 5 0 0 1-5 5H5a5 5 0 0 1-5-5zM0-528h280M140-528v171" stroke="#282c33" fill="none"/><use xlink:href="#u" transform="matrix(1,0,0,1,9.999999999999972,-568) translate(112.525 23.6)"/><use xlink:href="#v" transform="matrix(1,0,0,1,4.999999999999972,-525.5) translate(0 38.6)"/><use xlink:href="#c" transform="matrix(1,0,0,1,144.99999999999997,-525.5) translate(0 17)"/><use xlink:href="#d" transform="matrix(1,0,0,1,144.99999999999997,-525.5) translate(0 38.6)"/><use xlink:href="#e" transform="matrix(1,0,0,1,144.99999999999997,-525.5) translate(0 60.2)"/><use xlink:href="#w" transform="matrix(1,0,0,1,4.999999999999972,-450.5) translate(0 17.1)"/><use xlink:href="#g" transform="matrix(1,0,0,1,144.99999999999997,-450.5) translate(0 17.1)"/><use xlink:href="#x" transform="matrix(1,0,0,1,4.999999999999972,-418.5) translate(0 17.1)"/><use xlink:href="#g" transform="matrix(1,0,0,1,144.99999999999997,-418.5) translate(0 17.1)"/><use xlink:href="#y" transform="matrix(1,0,0,1,4.999999999999972,-386.5) translate(0 17.1)"/><use xlink:href="#g" transform="matrix(1,0,0,1,144.99999999999997,-386.5) translate(0 17.1)"/><path d="M0-995a5 5 0 0 1 5-5h270a5 5 0 0 1 5 5v233a5 5 0 0 1-5 5H5a5 5 0 0 1-5-5z" fill="#fff"/><path d="M0-960v-35a5 5 0 0 1 5-5h270a5 5 0 0 1 5 5v35" fill="#dedeff"/><path d="M0-995a5 5 0 0 1 5-5h270a5 5 0 0 1 5 5v233a5 5 0 0 1-5 5H5a5 5 0 0 1-5-5zM0-960h280M140-960v203" stroke="#282c33" fill="none"/><use xlink:href="#z" transform="matrix(1,0,0,1,10,-1000) translate(88.1 23.6)"/><use xlink:href="#A" transform="matrix(1,0,0,1,5,-957.5) translate(0 38.6)"/><use xlink:href="#c" transform="matrix(1,0,0,1,145,-957.5) translate(0 17)"/><use xlink:href="#d" transform="matrix(1,0,0,1,145,-957.5) translate(0 38.6)"/><use xlink:href="#e" transform="matrix(1,0,0,1,145,-957.5) translate(0 60.2)"/><use xlink:href="#B" transform="matrix(1,0,0,1,5,-882.5) translate(0 17.1)"/><use xlink:href="#g" transform="matrix(1,0,0,1,145,-882.5) translate(0 17.1)"/><use xlink:href="#C" transform="matrix(1,0,0,1,5,-850.5) translate(0 17.1)"/><use xlink:href="#g" transform="matrix(1,0,0,1,145,-850.5) translate(0 17.1)"/><use xlink:href="#D" transform="matrix(1,0,0,1,5,-818.5) translate(0 17.1)"/><use xlink:href="#g" transform="matrix(1,0,0,1,145,-818.5) translate(0 17.1)"/><use xlink:href="#v" transform="matrix(1,0,0,1,5,-786.5) translate(0 17.1)"/><use xlink:href="#j" transform="matrix(1,0,0,1,145,-786.5) translate(0 17.1)"/><use xlink:href="#k" transform="matrix(1,0,0,1,145,-786.5) translate(47.9 17.1)"/><path d="M400-995a5 5 0 0 1 5-5h270a5 5 0 0 1 5 5v233a5 5 0 0 1-5 5H405a5 5 0 0 1-5-5z" fill="#fff"/><path d="M400-960v-35a5 5 0 0 1 5-5h270a5 5 0 0 1 5 5v35" fill="#dedeff"/><path d="M400-995a5 5 0 0 1 5-5h270a5 5 0 0 1 5 5v233a5 5 0 0 1-5 5H405a5 5 0 0 1-5-5zM400-960h280M540-960v203" stroke="#282c33" fill="none"/><use xlink:href="#E" transform="matrix(1,0,0,1,410,-1000) translate(98.025 23.6)"/><use xlink:href="#F" transform="matrix(1,0,0,1,405,-957.5) translate(0 38.6)"/><use xlink:href="#c" transform="matrix(1,0,0,1,545,-957.5) translate(0 17)"/><use xlink:href="#d" transform="matrix(1,0,0,1,545,-957.5) translate(0 38.6)"/><use xlink:href="#e" transform="matrix(1,0,0,1,545,-957.5) translate(0 60.2)"/><use xlink:href="#G" transform="matrix(1,0,0,1,405,-882.5) translate(0 17.1)"/><use xlink:href="#g" transform="matrix(1,0,0,1,545,-882.5) translate(0 17.1)"/><use xlink:href="#H" transform="matrix(1,0,0,1,405,-850.5) translate(0 17.1)"/><use xlink:href="#g" transform="matrix(1,0,0,1,545,-850.5) translate(0 17.1)"/><use xlink:href="#I" transform="matrix(1,0,0,1,405,-818.5) translate(0 17.1)"/><use xlink:href="#g" transform="matrix(1,0,0,1,545,-818.5) translate(0 17.1)"/><use xlink:href="#J" transform="matrix(1,0,0,1,405,-786.5) translate(0 17.1)"/><use xlink:href="#K" transform="matrix(1,0,0,1,545,-786.5) translate(0 17.1)"/><path d="M400-557.5a5 5 0 0 1 5-5h270a5 5 0 0 1 5 5v94a5 5 0 0 1-5 5H405a5 5 0 0 1-5-5z" fill="#fff"/><path d="M400-522.5v-35a5 5 0 0 1 5-5h270a5 5 0 0 1 5 5v35" fill="#dedeff"/><path d="M400-557.5a5 5 0 0 1 5-5h270a5 5 0 0 1 5 5v94a5 5 0 0 1-5 5H405a5 5 0 0 1-5-5zM400-522.5h280M540-522.5v64" stroke="#282c33" fill="none"/><use xlink:href="#L" transform="matrix(1,0,0,1,410,-562.5) translate(75.55 23.6)"/><use xlink:href="#v" transform="matrix(1,0,0,1,405,-520) translate(0 17.1)"/><use xlink:href="#t" transform="matrix(1,0,0,1,545,-520) translate(0 17.1)"/><use xlink:href="#F" transform="matrix(1,0,0,1,405,-488) translate(0 17.1)"/><use xlink:href="#t" transform="matrix(1,0,0,1,545,-488) translate(0 17.1)"/><path d="M-500-1058.85a5 5 0 0 1 5-5h270a5 5 0 0 1 5 5v201a5 5 0 0 1-5 5h-270a5 5 0 0 1-5-5z" fill="#fff"/><path d="M-500-1023.85v-35a5 5 0 0 1 5-5h270a5 5 0 0 1 5 5v35" fill="#dedeff"/><path d="M-500-1058.85a5 5 0 0 1 5-5h270a5 5 0 0 1 5 5v201a5 5 0 0 1-5 5h-270a5 5 0 0 1-5-5zM-500-1023.85h280M-360-1023.85v171" stroke="#282c33" fill="none"/><use xlink:href="#M" transform="matrix(1,0,0,1,-490,-1063.8517671606062) translate(109.05 23.6)"/><use xlink:href="#N" transform="matrix(1,0,0,1,-495,-1021.3517671606062) translate(0 38.6)"/><use xlink:href="#c" transform="matrix(1,0,0,1,-355,-1021.3517671606062) translate(0 17)"/><use xlink:href="#d" transform="matrix(1,0,0,1,-355,-1021.3517671606062) translate(0 38.6)"/><use xlink:href="#e" transform="matrix(1,0,0,1,-355,-1021.3517671606062) translate(0 60.2)"/><use xlink:href="#O" transform="matrix(1,0,0,1,-495,-946.3517671606062) translate(0 17.1)"/><use xlink:href="#g" transform="matrix(1,0,0,1,-355,-946.3517671606062) translate(0 17.1)"/><use xlink:href="#P" transform="matrix(1,0,0,1,-495,-914.3517671606062) translate(0 17.1)"/><use xlink:href="#g" transform="matrix(1,0,0,1,-355,-914.3517671606062) translate(0 17.1)"/><use xlink:href="#v" transform="matrix(1,0,0,1,-495,-882.3517671606062) translate(0 17.1)"/><use xlink:href="#j" transform="matrix(1,0,0,1,-355,-882.3517671606062) translate(0 17.1)"/><use xlink:href="#k" transform="matrix(1,0,0,1,-355,-882.3517671606062) translate(47.9 17.1)"/><path d="M-940-1095a5 5 0 0 1 5-5h270a5 5 0 0 1 5 5v190a5 5 0 0 1-5 5h-270a5 5 0 0 1-5-5z" fill="#fff"/><path d="M-940-1060v-35a5 5 0 0 1 5-5h270a5 5 0 0 1 5 5v35" fill="#dedeff"/><path d="M-940-1095a5 5 0 0 1 5-5h270a5 5 0 0 1 5 5v190a5 5 0 0 1-5 5h-270a5 5 0 0 1-5-5zM-940-1060h280M-800-1060v160" stroke="#282c33" fill="none"/><use xlink:href="#Q" transform="matrix(1,0,0,1,-930,-1100) translate(87.1 23.6)"/><use xlink:href="#R" transform="matrix(1,0,0,1,-935,-1057.5) translate(0 17.1)"/><use xlink:href="#S" transform="matrix(1,0,0,1,-795,-1057.5) translate(0 17.1)"/><use xlink:href="#e" transform="matrix(1,0,0,1,-795,-1057.5) translate(86.9 17.1)"/><use xlink:href="#N" transform="matrix(1,0,0,1,-935,-1025.5) translate(0 17.1)"/><use xlink:href="#t" transform="matrix(1,0,0,1,-795,-1025.5) translate(0 17.1)"/><use xlink:href="#b" transform="matrix(1,0,0,1,-935,-993.5) translate(0 17.1)"/><use xlink:href="#t" transform="matrix(1,0,0,1,-795,-993.5) translate(0 17.1)"/><use xlink:href="#T" transform="matrix(1,0,0,1,-935,-961.5) translate(0 17.1)"/><use xlink:href="#U" transform="matrix(1,0,0,1,-795,-961.5) translate(0 17.1)"/><use xlink:href="#V" transform="matrix(1,0,0,1,-935,-929.5) translate(0 17.1)"/><use xlink:href="#W" transform="matrix(1,0,0,1,-795,-929.5) translate(0 17.1)"/><path d="M-980-625.5a5 5 0 0 1 5-5h270a5 5 0 0 1 5 5v190a5 5 0 0 1-5 5h-270a5 5 0 0 1-5-5z" fill="#fff"/><path d="M-980-590.5v-35a5 5 0 0 1 5-5h270a5 5 0 0 1 5 5v35" fill="#dedeff"/><path d="M-980-625.5a5 5 0 0 1 5-5h270a5 5 0 0 1 5 5v190a5 5 0 0 1-5 5h-270a5 5 0 0 1-5-5zM-980-590.5h280M-840-590.5v160" stroke="#282c33" fill="none"/><use xlink:href="#X" transform="matrix(1,0,0,1,-970,-630.5) translate(93.55 23.6)"/><use xlink:href="#b" transform="matrix(1,0,0,1,-975,-588) translate(0 17.1)"/><use xlink:href="#t" transform="matrix(1,0,0,1,-835,-588) translate(0 17.1)"/><use xlink:href="#r" transform="matrix(1,0,0,1,-975,-556) translate(0 17.1)"/><use xlink:href="#t" transform="matrix(1,0,0,1,-835,-556) translate(0 17.1)"/><use xlink:href="#T" transform="matrix(1,0,0,1,-975,-524) translate(0 17.1)"/><use xlink:href="#g" transform="matrix(1,0,0,1,-835,-524) translate(0 17.1)"/><use xlink:href="#Y" transform="matrix(1,0,0,1,-975,-492) translate(0 17.1)"/><use xlink:href="#g" transform="matrix(1,0,0,1,-835,-492) translate(0 17.1)"/><use xlink:href="#Z" transform="matrix(1,0,0,1,-975,-460) translate(0 17.1)"/><use xlink:href="#aa" transform="matrix(1,0,0,1,-835,-460) translate(0 17.1)"/><path d="M-840-200.5v-190" stroke="#3a414a" fill="none"/><path d="M-830-190.5h-20M-840-180.5v-20M-830-200.5h-20" stroke="#3a414a" fill="#fff"/><path d="M-830-429.78l-10 20-10-20" stroke="#3a414a" fill="#fff" fill-opacity="0"/><path d="M-840-429.78v20M-830-399.78c0 5.53-4.48 10-10 10s-10-4.47-10-10c0-5.52 4.48-10 10-10s10 4.48 10 10" stroke="#3a414a" fill="#fff"/><path d="M-1339.5-612.5h339.6" stroke="#3a414a" fill="none"/><path d="M-1339.5-602.5v-20M-1359.5-612.5h20" stroke="#3a414a" fill="#fff"/><path d="M-980.72-602.5l-20-10 20-10" stroke="#3a414a" fill="#fff" fill-opacity="0"/><path d="M-980.72-612.5h-20" stroke="#3a414a" fill="#fff"/><path d="M-560-695a5 5 0 0 1 5-5h270a5 5 0 0 1 5 5v329a5 5 0 0 1-5 5h-270a5 5 0 0 1-5-5z" fill="#fff"/><path d="M-560-660v-35a5 5 0 0 1 5-5h270a5 5 0 0 1 5 5v35" fill="#dedeff"/><path d="M-560-695a5 5 0 0 1 5-5h270a5 5 0 0 1 5 5v329a5 5 0 0 1-5 5h-270a5 5 0 0 1-5-5zM-560-660h280M-420-660v299" stroke="#282c33" fill="none"/><use xlink:href="#ab" transform="matrix(1,0,0,1,-550,-700) translate(96.525 23.6)"/><use xlink:href="#ac" transform="matrix(1,0,0,1,-555,-657.5) translate(0 38.6)"/><use xlink:href="#c" transform="matrix(1,0,0,1,-415,-657.5) translate(0 17)"/><use xlink:href="#d" transform="matrix(1,0,0,1,-415,-657.5) translate(0 38.6)"/><use xlink:href="#e" transform="matrix(1,0,0,1,-415,-657.5) translate(0 60.2)"/><use xlink:href="#v" transform="matrix(1,0,0,1,-555,-582.5) translate(0 17.1)"/><use xlink:href="#j" transform="matrix(1,0,0,1,-415,-582.5) translate(0 17.1)"/><use xlink:href="#ad" transform="matrix(1,0,0,1,-415,-582.5) translate(47.9 17.1)"/><use xlink:href="#b" transform="matrix(1,0,0,1,-555,-550.5) translate(0 17.1)"/><use xlink:href="#j" transform="matrix(1,0,0,1,-415,-550.5) translate(0 17.1)"/><use xlink:href="#ae" transform="matrix(1,0,0,1,-415,-550.5) translate(47.9 17.1)"/><use xlink:href="#af" transform="matrix(1,0,0,1,-555,-518.5) translate(0 17.1)"/><use xlink:href="#g" transform="matrix(1,0,0,1,-415,-518.5) translate(0 17.1)"/><use xlink:href="#ag" transform="matrix(1,0,0,1,-555,-486.5) translate(0 17.1)"/><use xlink:href="#W" transform="matrix(1,0,0,1,-415,-486.5) translate(0 17.1)"/><use xlink:href="#ah" transform="matrix(1,0,0,1,-555,-454.5) translate(0 17.1)"/><use xlink:href="#ai" transform="matrix(1,0,0,1,-415,-454.5) translate(0 17.1)"/><use xlink:href="#aj" transform="matrix(1,0,0,1,-555,-422.5) translate(0 17.1)"/><use xlink:href="#ai" transform="matrix(1,0,0,1,-415,-422.5) translate(0 17.1)"/><use xlink:href="#ak" transform="matrix(1,0,0,1,-555,-390.5) translate(0 17.1)"/><use xlink:href="#al" transform="matrix(1,0,0,1,-415,-390.5) translate(0 17.1)"/><path d="M-40-372.68h-187a12 12 0 0 1-12-12V-504a1 1 0 0 0-1-1" stroke="#3a414a" fill="none"/><path d="M-10.5-382.68v20M-.5-372.68h-20M-20.5-372.68c0 5.52-4.48 10-10 10s-10-4.48-10-10 4.48-10 10-10 10 4.48 10 10" stroke="#3a414a" fill="#fff"/><path d="M-279.28-515l20 10-20 10" stroke="#3a414a" fill="#fff" fill-opacity="0"/><path d="M-279.28-505h20M-239.28-505c0 5.52-4.47 10-10 10-5.52 0-10-4.48-10-10s4.48-10 10-10c5.53 0 10 4.48 10 10" stroke="#3a414a" fill="#fff"/><path d="M-660-16.8h228a12 12 0 0 0 12-12V-321" stroke="#3a414a" fill="none"/><path d="M-689.5-6.8v-20M-699.5-16.8h20M-659.5-16.8c0 5.53-4.48 10-10 10s-10-4.47-10-10c0-5.52 4.48-10 10-10s10 4.48 10 10" stroke="#3a414a" fill="#fff"/><path d="M-410-360.28l-10 20-10-20" stroke="#3a414a" fill="#fff" fill-opacity="0"/><path d="M-420-360.28v20M-410-330.28c0 5.53-4.48 10-10 10s-10-4.47-10-10c0-5.52 4.48-10 10-10s10 4.48 10 10" stroke="#3a414a" fill="#fff"/><path d="M140-717v128.5" stroke="#3a414a" fill="none"/><path d="M130-746.5h20M140-756.5v20M150-726.5c0 5.52-4.48 10-10 10s-10-4.48-10-10 4.48-10 10-10 10 4.48 10 10M150-588.5h-20M140-568.5v-20" stroke="#3a414a" fill="#fff"/><path d="M320-490.6h40" stroke="#3a414a" fill="none"/><path d="M290.5-480.6v-20M280.5-490.6h20M320.5-490.6c0 5.52-4.48 10-10 10s-10-4.48-10-10 4.48-10 10-10 10 4.48 10 10" stroke="#3a414a" fill="#fff"/><path d="M399.28-480.6l-20-10 20-10" stroke="#3a414a" fill="#fff" fill-opacity="0"/><path d="M399.28-490.6h-20M379.28-490.6c0 5.52-4.48 10-10 10-5.53 0-10-4.48-10-10s4.47-10 10-10c5.52 0 10 4.48 10 10" stroke="#3a414a" fill="#fff"/><path d="M540-717v114.5" stroke="#3a414a" fill="none"/><path d="M530-746.5h20M540-756.5v20M550-726.5c0 5.52-4.48 10-10 10s-10-4.48-10-10 4.48-10 10-10 10 4.48 10 10" stroke="#3a414a" fill="#fff"/><path d="M530-563.22l10-20 10 20" stroke="#3a414a" fill="#fff" fill-opacity="0"/><path d="M540-563.22v-20M550-593.22c0 5.52-4.48 10-10 10s-10-4.48-10-10c0-5.53 4.48-10 10-10s10 4.47 10 10" stroke="#3a414a" fill="#fff"/><path d="M-620-915.7a.5.5 0 0 1 .5.5v742.9a12 12 0 0 1-12 12h-48" stroke="#3a414a" fill="none"/><path d="M-659.28-925.7l20 10-20 10" stroke="#3a414a" fill="#fff" fill-opacity="0"/><path d="M-659.28-915.7h20M-619.28-915.7c0 5.52-4.47 10-10 10-5.52 0-10-4.48-10-10s4.48-10 10-10c5.53 0 10 4.48 10 10M-679.5-150.3v-20M-699.5-160.3h20" stroke="#3a414a" fill="#fff"/><path d="M-620-1044.16h99.5" stroke="#3a414a" fill="none"/><path d="M-659.28-1054.16l20 10-20 10" stroke="#3a414a" fill="#fff" fill-opacity="0"/><path d="M-659.28-1044.16h20M-619.28-1044.16c0 5.53-4.47 10-10 10-5.52 0-10-4.47-10-10 0-5.52 4.48-10 10-10 5.53 0 10 4.48 10 10M-520.5-1054.16v20M-500.5-1044.16h-20" stroke="#3a414a" fill="#fff"/><path d="M-20.5-548.3H-98a12 12 0 0 1-12-12v-360.46a12 12 0 0 0-12-12h-58" stroke="#3a414a" fill="none"/><path d="M-20.5-558.3v20M-.5-548.3h-20" stroke="#3a414a" fill="#fff"/><path d="M-219.28-942.76l20 10-20 10" stroke="#3a414a" fill="#fff" fill-opacity="0"/><path d="M-219.28-932.76h20M-179.28-932.76c0 5.52-4.47 10-10 10-5.52 0-10-4.48-10-10s4.48-10 10-10c5.53 0 10 4.48 10 10" stroke="#3a414a" fill="#fff"/><defs><path fill="#333" d="M115-194c55 1 70 41 70 98S169 2 115 4C84 4 66-9 55-30l1 105H24l-1-265h31l2 30c10-21 28-34 59-34zm-8 174c40 0 45-34 45-75s-6-73-45-74c-42 0-51 32-51 76 0 43 10 73 51 73" id="am"/><path fill="#333" d="M114-163C36-179 61-72 57 0H25l-1-190h30c1 12-1 29 2 39 6-27 23-49 58-41v29" id="an"/><path fill="#333" d="M100-194c62-1 85 37 85 99 1 63-27 99-86 99S16-35 15-95c0-66 28-99 85-99zM99-20c44 1 53-31 53-75 0-43-8-75-51-75s-53 32-53 75 10 74 51 75" id="ao"/><path fill="#333" d="M85-194c31 0 48 13 60 33l-1-100h32l1 261h-30c-2-10 0-23-3-31C134-8 116 4 85 4 32 4 16-35 15-94c0-66 23-100 70-100zm9 24c-40 0-46 34-46 75 0 40 6 74 45 74 42 0 51-32 51-76 0-42-9-74-50-73" id="ap"/><path fill="#333" d="M84 4C-5 8 30-112 23-190h32v120c0 31 7 50 39 49 72-2 45-101 50-169h31l1 190h-30c-1-10 1-25-2-33-11 22-28 36-60 37" id="aq"/><path fill="#333" d="M96-169c-40 0-48 33-48 73s9 75 48 75c24 0 41-14 43-38l32 2c-6 37-31 61-74 61-59 0-76-41-82-99-10-93 101-131 147-64 4 7 5 14 7 22l-32 3c-4-21-16-35-41-35" id="ar"/><path fill="#333" d="M59-47c-2 24 18 29 38 22v24C64 9 27 4 27-40v-127H5v-23h24l9-43h21v43h35v23H59v120" id="as"/><g id="a"><use transform="matrix(0.05,0,0,0.05,0,0)" xlink:href="#am"/><use transform="matrix(0.05,0,0,0.05,10,0)" xlink:href="#an"/><use transform="matrix(0.05,0,0,0.05,15.949999999999998,0)" xlink:href="#ao"/><use transform="matrix(0.05,0,0,0.05,25.950000000000003,0)" xlink:href="#ap"/><use transform="matrix(0.05,0,0,0.05,35.95,0)" xlink:href="#aq"/><use transform="matrix(0.05,0,0,0.05,45.95,0)" xlink:href="#ar"/><use transform="matrix(0.05,0,0,0.05,54.95,0)" xlink:href="#as"/></g><path fill="#333" d="M-5 72V49h209v23H-5" id="at"/><path fill="#333" d="M24-231v-30h32v30H24zM24 0v-190h32V0H24" id="au"/><g id="b"><use transform="matrix(0.05,0,0,0.05,0,0)" xlink:href="#am"/><use transform="matrix(0.05,0,0,0.05,10,0)" xlink:href="#an"/><use transform="matrix(0.05,0,0,0.05,15.949999999999998,0)" xlink:href="#ao"/><use transform="matrix(0.05,0,0,0.05,25.950000000000003,0)" xlink:href="#ap"/><use transform="matrix(0.05,0,0,0.05,35.95,0)" xlink:href="#aq"/><use transform="matrix(0.05,0,0,0.05,45.95,0)" xlink:href="#ar"/><use transform="matrix(0.05,0,0,0.05,54.95,0)" xlink:href="#as"/><use transform="matrix(0.05,0,0,0.05,59.95,0)" xlink:href="#at"/><use transform="matrix(0.05,0,0,0.05,69.95,0)" xlink:href="#au"/><use transform="matrix(0.05,0,0,0.05,73.9,0)" xlink:href="#ap"/></g><path fill="#333" d="M115-194c53 0 69 39 70 98 0 66-23 100-70 100C84 3 66-7 56-30L54 0H23l1-261h32v101c10-23 28-34 59-34zm-8 174c40 0 45-34 45-75 0-40-5-75-45-74-42 0-51 32-51 76 0 43 10 73 51 73" id="av"/><path fill="#333" d="M177-190C167-65 218 103 67 71c-23-6-38-20-44-43l32-5c15 47 100 32 89-28v-30C133-14 115 1 83 1 29 1 15-40 15-95c0-56 16-97 71-98 29-1 48 16 59 35 1-10 0-23 2-32h30zM94-22c36 0 50-32 50-73 0-42-14-75-50-75-39 0-46 34-46 75s6 73 46 73" id="aw"/><path fill="#333" d="M117-194c89-4 53 116 60 194h-32v-121c0-31-8-49-39-48C34-167 62-67 57 0H25l-1-190h30c1 10-1 24 2 32 11-22 29-35 61-36" id="ax"/><g id="c"><use transform="matrix(0.05,0,0,0.05,0,0)" xlink:href="#av"/><use transform="matrix(0.05,0,0,0.05,10,0)" xlink:href="#au"/><use transform="matrix(0.05,0,0,0.05,13.949999999999998,0)" xlink:href="#aw"/><use transform="matrix(0.05,0,0,0.05,23.95,0)" xlink:href="#au"/><use transform="matrix(0.05,0,0,0.05,27.899999999999995,0)" xlink:href="#ax"/><use transform="matrix(0.05,0,0,0.05,37.9,0)" xlink:href="#as"/></g><path fill="#333" d="M141-36C126-15 110 5 73 4 37 3 15-17 15-53c-1-64 63-63 125-63 3-35-9-54-41-54-24 1-41 7-42 31l-33-3c5-37 33-52 76-52 45 0 72 20 72 64v82c-1 20 7 32 28 27v20c-31 9-61-2-59-35zM48-53c0 20 12 33 32 33 41-3 63-29 60-74-43 2-92-5-92 41" id="ay"/><path fill="#333" d="M100-194c63 0 86 42 84 106H49c0 40 14 67 53 68 26 1 43-12 49-29l28 8c-11 28-37 45-77 45C44 4 14-33 15-96c1-61 26-98 85-98zm52 81c6-60-76-77-97-28-3 7-6 17-6 28h103" id="az"/><path fill="#333" d="M210-169c-67 3-38 105-44 169h-31v-121c0-29-5-50-35-48C34-165 62-65 56 0H25l-1-190h30c1 10-1 24 2 32 10-44 99-50 107 0 11-21 27-35 58-36 85-2 47 119 55 194h-31v-121c0-29-5-49-35-48" id="aA"/><g id="d"><use transform="matrix(0.05,0,0,0.05,0,0)" xlink:href="#ay"/><use transform="matrix(0.05,0,0,0.05,10,0)" xlink:href="#aq"/><use transform="matrix(0.05,0,0,0.05,20,0)" xlink:href="#as"/><use transform="matrix(0.05,0,0,0.05,25,0)" xlink:href="#ao"/><use transform="matrix(0.05,0,0,0.05,35,0)" xlink:href="#at"/><use transform="matrix(0.05,0,0,0.05,45,0)" xlink:href="#au"/><use transform="matrix(0.05,0,0,0.05,48.95,0)" xlink:href="#ax"/><use transform="matrix(0.05,0,0,0.05,58.95,0)" xlink:href="#ar"/><use transform="matrix(0.05,0,0,0.05,67.95,0)" xlink:href="#an"/><use transform="matrix(0.05,0,0,0.05,73.9,0)" xlink:href="#az"/><use transform="matrix(0.05,0,0,0.05,83.9,0)" xlink:href="#aA"/><use transform="matrix(0.05,0,0,0.05,98.85000000000001,0)" xlink:href="#az"/><use transform="matrix(0.05,0,0,0.05,108.85000000000001,0)" xlink:href="#ax"/><use transform="matrix(0.05,0,0,0.05,118.85000000000001,0)" xlink:href="#as"/></g><path fill="#333" d="M30-248c87 1 191-15 191 75 0 78-77 80-158 76V0H30v-248zm33 125c57 0 124 11 124-50 0-59-68-47-124-48v98" id="aB"/><path fill="#333" d="M194 0L95-120 63-95V0H30v-248h33v124l119-124h40L117-140 236 0h-42" id="aC"/><g id="e"><use transform="matrix(0.05,0,0,0.05,0,0)" xlink:href="#aB"/><use transform="matrix(0.05,0,0,0.05,12,0)" xlink:href="#aC"/></g><g id="f"><use transform="matrix(0.05,0,0,0.05,0,0)" xlink:href="#ax"/><use transform="matrix(0.05,0,0,0.05,10,0)" xlink:href="#ay"/><use transform="matrix(0.05,0,0,0.05,20,0)" xlink:href="#aA"/><use transform="matrix(0.05,0,0,0.05,34.95,0)" xlink:href="#az"/></g><path fill="#333" d="M108 0H70L1-190h34L89-25l56-165h34" id="aD"/><path fill="#333" d="M106-169C34-169 62-67 57 0H25v-261h32l-1 103c12-21 28-36 61-36 89 0 53 116 60 194h-32v-121c2-32-8-49-39-48" id="aE"/><path fill="#333" d="M87 75C49 33 22-17 22-94c0-76 28-126 65-167h31c-38 41-64 92-64 168S80 34 118 75H87" id="aF"/><path fill="#333" d="M101-251c82-7 93 87 43 132L82-64C71-53 59-42 53-27h129V0H18c2-99 128-94 128-182 0-28-16-43-45-43s-46 15-49 41l-32-3c6-41 34-60 81-64" id="aG"/><path fill="#333" d="M54-142c48-35 137-8 131 61C196 18 31 33 14-55l32-4c7 23 22 37 52 37 35-1 51-22 54-58 4-55-73-65-99-34H22l8-134h141v27H59" id="aH"/><path fill="#333" d="M33-261c38 41 65 92 65 168S71 34 33 75H2C39 34 66-17 66-93S39-220 2-261h31" id="aI"/><g id="g"><use transform="matrix(0.05,0,0,0.05,0,0)" xlink:href="#aD"/><use transform="matrix(0.05,0,0,0.05,9,0)" xlink:href="#ay"/><use transform="matrix(0.05,0,0,0.05,19,0)" xlink:href="#an"/><use transform="matrix(0.05,0,0,0.05,24.95,0)" xlink:href="#ar"/><use transform="matrix(0.05,0,0,0.05,33.95,0)" xlink:href="#aE"/><use transform="matrix(0.05,0,0,0.05,43.95,0)" xlink:href="#ay"/><use transform="matrix(0.05,0,0,0.05,53.95,0)" xlink:href="#an"/><use transform="matrix(0.05,0,0,0.05,59.900000000000006,0)" xlink:href="#aF"/><use transform="matrix(0.05,0,0,0.05,65.85000000000001,0)" xlink:href="#aG"/><use transform="matrix(0.05,0,0,0.05,75.85000000000001,0)" xlink:href="#aH"/><use transform="matrix(0.05,0,0,0.05,85.85000000000001,0)" xlink:href="#aH"/><use transform="matrix(0.05,0,0,0.05,95.85000000000001,0)" xlink:href="#aI"/></g><path fill="#333" d="M135-143c-3-34-86-38-87 0 15 53 115 12 119 90S17 21 10-45l28-5c4 36 97 45 98 0-10-56-113-15-118-90-4-57 82-63 122-42 12 7 21 19 24 35" id="aJ"/><g id="h"><use transform="matrix(0.05,0,0,0.05,0,0)" xlink:href="#ap"/><use transform="matrix(0.05,0,0,0.05,10,0)" xlink:href="#az"/><use transform="matrix(0.05,0,0,0.05,20,0)" xlink:href="#aJ"/><use transform="matrix(0.05,0,0,0.05,29,0)" xlink:href="#ar"/><use transform="matrix(0.05,0,0,0.05,38,0)" xlink:href="#an"/><use transform="matrix(0.05,0,0,0.05,43.95,0)" xlink:href="#au"/><use transform="matrix(0.05,0,0,0.05,47.900000000000006,0)" xlink:href="#am"/><use transform="matrix(0.05,0,0,0.05,57.900000000000006,0)" xlink:href="#as"/><use transform="matrix(0.05,0,0,0.05,62.900000000000006,0)" xlink:href="#au"/><use transform="matrix(0.05,0,0,0.05,66.85000000000001,0)" xlink:href="#ao"/><use transform="matrix(0.05,0,0,0.05,76.85000000000001,0)" xlink:href="#ax"/></g><path fill="#333" d="M179-190L93 31C79 59 56 82 12 73V49c39 6 53-20 64-50L1-190h34L92-34l54-156h33" id="aK"/><g id="i"><use transform="matrix(0.05,0,0,0.05,0,0)" xlink:href="#ar"/><use transform="matrix(0.05,0,0,0.05,9,0)" xlink:href="#ay"/><use transform="matrix(0.05,0,0,0.05,19,0)" xlink:href="#as"/><use transform="matrix(0.05,0,0,0.05,24,0)" xlink:href="#az"/><use transform="matrix(0.05,0,0,0.05,34,0)" xlink:href="#aw"/><use transform="matrix(0.05,0,0,0.05,44,0)" xlink:href="#ao"/><use transform="matrix(0.05,0,0,0.05,54,0)" xlink:href="#an"/><use transform="matrix(0.05,0,0,0.05,59.95,0)" xlink:href="#aK"/><use transform="matrix(0.05,0,0,0.05,68.95,0)" xlink:href="#at"/><use transform="matrix(0.05,0,0,0.05,78.95,0)" xlink:href="#au"/><use transform="matrix(0.05,0,0,0.05,82.9,0)" xlink:href="#ap"/></g><g id="j"><use transform="matrix(0.05,0,0,0.05,0,0)" xlink:href="#av"/><use transform="matrix(0.05,0,0,0.05,10,0)" xlink:href="#au"/><use transform="matrix(0.05,0,0,0.05,13.949999999999998,0)" xlink:href="#aw"/><use transform="matrix(0.05,0,0,0.05,23.95,0)" xlink:href="#au"/><use transform="matrix(0.05,0,0,0.05,27.899999999999995,0)" xlink:href="#ax"/><use transform="matrix(0.05,0,0,0.05,37.9,0)" xlink:href="#as"/></g><path fill="#333" d="M63-220v92h138v28H63V0H30v-248h175v28H63" id="aL"/><g id="k"><use transform="matrix(0.05,0,0,0.05,0,0)" xlink:href="#aL"/><use transform="matrix(0.05,0,0,0.05,10.950000000000001,0)" xlink:href="#aC"/></g><g id="l"><use transform="matrix(0.05,0,0,0.05,0,0)" xlink:href="#ar"/><use transform="matrix(0.05,0,0,0.05,9,0)" xlink:href="#ay"/><use transform="matrix(0.05,0,0,0.05,19,0)" xlink:href="#as"/><use transform="matrix(0.05,0,0,0.05,24,0)" xlink:href="#az"/><use transform="matrix(0.05,0,0,0.05,34,0)" xlink:href="#aw"/><use transform="matrix(0.05,0,0,0.05,44,0)" xlink:href="#ao"/><use transform="matrix(0.05,0,0,0.05,54,0)" xlink:href="#an"/><use transform="matrix(0.05,0,0,0.05,59.95,0)" xlink:href="#aK"/></g><g id="m"><use transform="matrix(0.05,0,0,0.05,0,0)" xlink:href="#ay"/><use transform="matrix(0.05,0,0,0.05,10,0)" xlink:href="#aq"/><use transform="matrix(0.05,0,0,0.05,20,0)" xlink:href="#as"/><use transform="matrix(0.05,0,0,0.05,25,0)" xlink:href="#ao"/><use transform="matrix(0.05,0,0,0.05,35,0)" xlink:href="#at"/><use transform="matrix(0.05,0,0,0.05,45,0)" xlink:href="#au"/><use transform="matrix(0.05,0,0,0.05,48.95,0)" xlink:href="#ax"/><use transform="matrix(0.05,0,0,0.05,58.95,0)" xlink:href="#ar"/><use transform="matrix(0.05,0,0,0.05,67.95,0)" xlink:href="#an"/><use transform="matrix(0.05,0,0,0.05,73.9,0)" xlink:href="#az"/><use transform="matrix(0.05,0,0,0.05,83.9,0)" xlink:href="#aA"/><use transform="matrix(0.05,0,0,0.05,98.85000000000001,0)" xlink:href="#az"/><use transform="matrix(0.05,0,0,0.05,108.85000000000001,0)" xlink:href="#ax"/><use transform="matrix(0.05,0,0,0.05,118.85000000000001,0)" xlink:href="#as"/></g><g id="n"><use transform="matrix(0.05,0,0,0.05,0,0)" xlink:href="#au"/><use transform="matrix(0.05,0,0,0.05,3.95,0)" xlink:href="#aA"/><use transform="matrix(0.05,0,0,0.05,18.900000000000002,0)" xlink:href="#ay"/><use transform="matrix(0.05,0,0,0.05,28.900000000000002,0)" xlink:href="#aw"/><use transform="matrix(0.05,0,0,0.05,38.900000000000006,0)" xlink:href="#az"/></g><g id="o"><use transform="matrix(0.05,0,0,0.05,0,0)" xlink:href="#au"/><use transform="matrix(0.05,0,0,0.05,3.95,0)" xlink:href="#aA"/><use transform="matrix(0.05,0,0,0.05,18.900000000000002,0)" xlink:href="#ay"/><use transform="matrix(0.05,0,0,0.05,28.900000000000002,0)" xlink:href="#aw"/><use transform="matrix(0.05,0,0,0.05,38.900000000000006,0)" xlink:href="#az"/><use transform="matrix(0.05,0,0,0.05,48.900000000000006,0)" xlink:href="#at"/><use transform="matrix(0.05,0,0,0.05,58.900000000000006,0)" xlink:href="#au"/><use transform="matrix(0.05,0,0,0.05,62.85,0)" xlink:href="#ap"/></g><path fill="#333" d="M24 0v-261h32V0H24" id="aM"/><g id="p"><use transform="matrix(0.05,0,0,0.05,0,0)" xlink:href="#aq"/><use transform="matrix(0.05,0,0,0.05,10,0)" xlink:href="#an"/><use transform="matrix(0.05,0,0,0.05,15.949999999999998,0)" xlink:href="#aM"/></g><path fill="#333" d="M9 0v-24l116-142H16v-24h144v24L44-24h123V0H9" id="aN"/><g id="q"><use transform="matrix(0.05,0,0,0.05,0,0)" xlink:href="#aJ"/><use transform="matrix(0.05,0,0,0.05,9,0)" xlink:href="#au"/><use transform="matrix(0.05,0,0,0.05,12.949999999999998,0)" xlink:href="#aN"/><use transform="matrix(0.05,0,0,0.05,21.95,0)" xlink:href="#az"/></g><g id="r"><use transform="matrix(0.05,0,0,0.05,0,0)" xlink:href="#aJ"/><use transform="matrix(0.05,0,0,0.05,9,0)" xlink:href="#au"/><use transform="matrix(0.05,0,0,0.05,12.949999999999998,0)" xlink:href="#aN"/><use transform="matrix(0.05,0,0,0.05,21.95,0)" xlink:href="#az"/><use transform="matrix(0.05,0,0,0.05,31.950000000000003,0)" xlink:href="#at"/><use transform="matrix(0.05,0,0,0.05,41.95,0)" xlink:href="#au"/><use transform="matrix(0.05,0,0,0.05,45.900000000000006,0)" xlink:href="#ap"/></g><g id="s"><use transform="matrix(0.05,0,0,0.05,0,0)" xlink:href="#am"/><use transform="matrix(0.05,0,0,0.05,10,0)" xlink:href="#an"/><use transform="matrix(0.05,0,0,0.05,15.949999999999998,0)" xlink:href="#ao"/><use transform="matrix(0.05,0,0,0.05,25.950000000000003,0)" xlink:href="#ap"/><use transform="matrix(0.05,0,0,0.05,35.95,0)" xlink:href="#aq"/><use transform="matrix(0.05,0,0,0.05,45.95,0)" xlink:href="#ar"/><use transform="matrix(0.05,0,0,0.05,54.95,0)" xlink:href="#as"/><use transform="matrix(0.05,0,0,0.05,59.95,0)" xlink:href="#at"/><use transform="matrix(0.05,0,0,0.05,69.95,0)" xlink:href="#aJ"/><use transform="matrix(0.05,0,0,0.05,78.95,0)" xlink:href="#au"/><use transform="matrix(0.05,0,0,0.05,82.9,0)" xlink:href="#aN"/><use transform="matrix(0.05,0,0,0.05,91.9,0)" xlink:href="#az"/></g><g id="t"><use transform="matrix(0.05,0,0,0.05,0,0)" xlink:href="#av"/><use transform="matrix(0.05,0,0,0.05,10,0)" xlink:href="#au"/><use transform="matrix(0.05,0,0,0.05,13.949999999999998,0)" xlink:href="#aw"/><use transform="matrix(0.05,0,0,0.05,23.95,0)" xlink:href="#au"/><use transform="matrix(0.05,0,0,0.05,27.899999999999995,0)" xlink:href="#ax"/><use transform="matrix(0.05,0,0,0.05,37.9,0)" xlink:href="#as"/></g><path fill="#3a414a" d="M84 4C-5 8 30-112 23-190h32v120c0 31 7 50 39 49 72-2 45-101 50-169h31l1 190h-30c-1-10 1-25-2-33-11 22-28 36-60 37" id="aO"/><path fill="#3a414a" d="M135-143c-3-34-86-38-87 0 15 53 115 12 119 90S17 21 10-45l28-5c4 36 97 45 98 0-10-56-113-15-118-90-4-57 82-63 122-42 12 7 21 19 24 35" id="aP"/><path fill="#3a414a" d="M100-194c63 0 86 42 84 106H49c0 40 14 67 53 68 26 1 43-12 49-29l28 8c-11 28-37 45-77 45C44 4 14-33 15-96c1-61 26-98 85-98zm52 81c6-60-76-77-97-28-3 7-6 17-6 28h103" id="aQ"/><path fill="#3a414a" d="M114-163C36-179 61-72 57 0H25l-1-190h30c1 12-1 29 2 39 6-27 23-49 58-41v29" id="aR"/><g id="u"><use transform="matrix(0.05,0,0,0.05,0,0)" xlink:href="#aO"/><use transform="matrix(0.05,0,0,0.05,10,0)" xlink:href="#aP"/><use transform="matrix(0.05,0,0,0.05,19,0)" xlink:href="#aQ"/><use transform="matrix(0.05,0,0,0.05,29,0)" xlink:href="#aR"/></g><g id="v"><use transform="matrix(0.05,0,0,0.05,0,0)" xlink:href="#aq"/><use transform="matrix(0.05,0,0,0.05,10,0)" xlink:href="#aJ"/><use transform="matrix(0.05,0,0,0.05,19,0)" xlink:href="#az"/><use transform="matrix(0.05,0,0,0.05,29,0)" xlink:href="#an"/><use transform="matrix(0.05,0,0,0.05,34.95,0)" xlink:href="#at"/><use transform="matrix(0.05,0,0,0.05,44.95,0)" xlink:href="#au"/><use transform="matrix(0.05,0,0,0.05,48.900000000000006,0)" xlink:href="#ap"/></g><g id="w"><use transform="matrix(0.05,0,0,0.05,0,0)" xlink:href="#aq"/><use transform="matrix(0.05,0,0,0.05,10,0)" xlink:href="#aJ"/><use transform="matrix(0.05,0,0,0.05,19,0)" xlink:href="#az"/><use transform="matrix(0.05,0,0,0.05,29,0)" xlink:href="#an"/><use transform="matrix(0.05,0,0,0.05,34.95,0)" xlink:href="#ax"/><use transform="matrix(0.05,0,0,0.05,44.95,0)" xlink:href="#ay"/><use transform="matrix(0.05,0,0,0.05,54.95,0)" xlink:href="#aA"/><use transform="matrix(0.05,0,0,0.05,69.9,0)" xlink:href="#az"/></g><g id="x"><use transform="matrix(0.05,0,0,0.05,0,0)" xlink:href="#az"/><use transform="matrix(0.05,0,0,0.05,10,0)" xlink:href="#aA"/><use transform="matrix(0.05,0,0,0.05,24.950000000000003,0)" xlink:href="#ay"/><use transform="matrix(0.05,0,0,0.05,34.95,0)" xlink:href="#au"/><use transform="matrix(0.05,0,0,0.05,38.900000000000006,0)" xlink:href="#aM"/></g><path fill="#333" d="M206 0h-36l-40-164L89 0H53L-1-190h32L70-26l43-164h34l41 164 42-164h31" id="aS"/><g id="y"><use transform="matrix(0.05,0,0,0.05,0,0)" xlink:href="#am"/><use transform="matrix(0.05,0,0,0.05,10,0)" xlink:href="#ay"/><use transform="matrix(0.05,0,0,0.05,20,0)" xlink:href="#aJ"/><use transform="matrix(0.05,0,0,0.05,29,0)" xlink:href="#aJ"/><use transform="matrix(0.05,0,0,0.05,38,0)" xlink:href="#aS"/><use transform="matrix(0.05,0,0,0.05,50.95,0)" xlink:href="#ao"/><use transform="matrix(0.05,0,0,0.05,60.95,0)" xlink:href="#an"/><use transform="matrix(0.05,0,0,0.05,66.9,0)" xlink:href="#ap"/></g><path fill="#3a414a" d="M115-194c55 1 70 41 70 98S169 2 115 4C84 4 66-9 55-30l1 105H24l-1-265h31l2 30c10-21 28-34 59-34zm-8 174c40 0 45-34 45-75s-6-73-45-74c-42 0-51 32-51 76 0 43 10 73 51 73" id="aT"/><path fill="#3a414a" d="M100-194c62-1 85 37 85 99 1 63-27 99-86 99S16-35 15-95c0-66 28-99 85-99zM99-20c44 1 53-31 53-75 0-43-8-75-51-75s-53 32-53 75 10 74 51 75" id="aU"/><path fill="#3a414a" d="M101-234c-31-9-42 10-38 44h38v23H63V0H32v-167H5v-23h27c-7-52 17-82 69-68v24" id="aV"/><path fill="#3a414a" d="M24-231v-30h32v30H24zM24 0v-190h32V0H24" id="aW"/><path fill="#3a414a" d="M24 0v-261h32V0H24" id="aX"/><g id="z"><use transform="matrix(0.05,0,0,0.05,0,0)" xlink:href="#aO"/><use transform="matrix(0.05,0,0,0.05,10,0)" xlink:href="#aP"/><use transform="matrix(0.05,0,0,0.05,19,0)" xlink:href="#aQ"/><use transform="matrix(0.05,0,0,0.05,29,0)" xlink:href="#aR"/><use transform="matrix(0.05,0,0,0.05,34.95,0)" xlink:href="#aT"/><use transform="matrix(0.05,0,0,0.05,44.95,0)" xlink:href="#aR"/><use transform="matrix(0.05,0,0,0.05,50.900000000000006,0)" xlink:href="#aU"/><use transform="matrix(0.05,0,0,0.05,60.900000000000006,0)" xlink:href="#aV"/><use transform="matrix(0.05,0,0,0.05,65.9,0)" xlink:href="#aW"/><use transform="matrix(0.05,0,0,0.05,69.85000000000001,0)" xlink:href="#aX"/><use transform="matrix(0.05,0,0,0.05,73.80000000000001,0)" xlink:href="#aQ"/></g><path fill="#333" d="M101-234c-31-9-42 10-38 44h38v23H63V0H32v-167H5v-23h27c-7-52 17-82 69-68v24" id="aY"/><g id="A"><use transform="matrix(0.05,0,0,0.05,0,0)" xlink:href="#aq"/><use transform="matrix(0.05,0,0,0.05,10,0)" xlink:href="#aJ"/><use transform="matrix(0.05,0,0,0.05,19,0)" xlink:href="#az"/><use transform="matrix(0.05,0,0,0.05,29,0)" xlink:href="#an"/><use transform="matrix(0.05,0,0,0.05,34.95,0)" xlink:href="#am"/><use transform="matrix(0.05,0,0,0.05,44.95,0)" xlink:href="#an"/><use transform="matrix(0.05,0,0,0.05,50.900000000000006,0)" xlink:href="#ao"/><use transform="matrix(0.05,0,0,0.05,60.900000000000006,0)" xlink:href="#aY"/><use transform="matrix(0.05,0,0,0.05,65.9,0)" xlink:href="#au"/><use transform="matrix(0.05,0,0,0.05,69.85000000000001,0)" xlink:href="#aM"/><use transform="matrix(0.05,0,0,0.05,73.80000000000001,0)" xlink:href="#az"/><use transform="matrix(0.05,0,0,0.05,83.80000000000001,0)" xlink:href="#at"/><use transform="matrix(0.05,0,0,0.05,93.80000000000001,0)" xlink:href="#au"/><use transform="matrix(0.05,0,0,0.05,97.75000000000001,0)" xlink:href="#ap"/></g><g id="B"><use transform="matrix(0.05,0,0,0.05,0,0)" xlink:href="#aY"/><use transform="matrix(0.05,0,0,0.05,5,0)" xlink:href="#au"/><use transform="matrix(0.05,0,0,0.05,8.95,0)" xlink:href="#an"/><use transform="matrix(0.05,0,0,0.05,14.899999999999999,0)" xlink:href="#aJ"/><use transform="matrix(0.05,0,0,0.05,23.9,0)" xlink:href="#as"/><use transform="matrix(0.05,0,0,0.05,28.899999999999995,0)" xlink:href="#at"/><use transform="matrix(0.05,0,0,0.05,38.9,0)" xlink:href="#ax"/><use transform="matrix(0.05,0,0,0.05,48.9,0)" xlink:href="#ay"/><use transform="matrix(0.05,0,0,0.05,58.900000000000006,0)" xlink:href="#aA"/><use transform="matrix(0.05,0,0,0.05,73.85,0)" xlink:href="#az"/></g><g id="C"><use transform="matrix(0.05,0,0,0.05,0,0)" xlink:href="#aM"/><use transform="matrix(0.05,0,0,0.05,3.95,0)" xlink:href="#ay"/><use transform="matrix(0.05,0,0,0.05,13.949999999999998,0)" xlink:href="#aJ"/><use transform="matrix(0.05,0,0,0.05,22.95,0)" xlink:href="#as"/><use transform="matrix(0.05,0,0,0.05,27.950000000000003,0)" xlink:href="#at"/><use transform="matrix(0.05,0,0,0.05,37.95,0)" xlink:href="#ax"/><use transform="matrix(0.05,0,0,0.05,47.95,0)" xlink:href="#ay"/><use transform="matrix(0.05,0,0,0.05,57.95,0)" xlink:href="#aA"/><use transform="matrix(0.05,0,0,0.05,72.9,0)" xlink:href="#az"/></g><g id="D"><use transform="matrix(0.05,0,0,0.05,0,0)" xlink:href="#aw"/><use transform="matrix(0.05,0,0,0.05,10,0)" xlink:href="#az"/><use transform="matrix(0.05,0,0,0.05,20,0)" xlink:href="#ax"/><use transform="matrix(0.05,0,0,0.05,30,0)" xlink:href="#ap"/><use transform="matrix(0.05,0,0,0.05,40,0)" xlink:href="#az"/><use transform="matrix(0.05,0,0,0.05,50,0)" xlink:href="#an"/></g><path fill="#3a414a" d="M141-36C126-15 110 5 73 4 37 3 15-17 15-53c-1-64 63-63 125-63 3-35-9-54-41-54-24 1-41 7-42 31l-33-3c5-37 33-52 76-52 45 0 72 20 72 64v82c-1 20 7 32 28 27v20c-31 9-61-2-59-35zM48-53c0 20 12 33 32 33 41-3 63-29 60-74-43 2-92-5-92 41" id="aZ"/><path fill="#3a414a" d="M85-194c31 0 48 13 60 33l-1-100h32l1 261h-30c-2-10 0-23-3-31C134-8 116 4 85 4 32 4 16-35 15-94c0-66 23-100 70-100zm9 24c-40 0-46 34-46 75 0 40 6 74 45 74 42 0 51-32 51-76 0-42-9-74-50-73" id="ba"/><g id="E"><use transform="matrix(0.05,0,0,0.05,0,0)" xlink:href="#aZ"/><use transform="matrix(0.05,0,0,0.05,10,0)" xlink:href="#ba"/><use transform="matrix(0.05,0,0,0.05,20,0)" xlink:href="#ba"/><use transform="matrix(0.05,0,0,0.05,30,0)" xlink:href="#aR"/><use transform="matrix(0.05,0,0,0.05,35.95,0)" xlink:href="#aQ"/><use transform="matrix(0.05,0,0,0.05,45.95,0)" xlink:href="#aP"/><use transform="matrix(0.05,0,0,0.05,54.95,0)" xlink:href="#aP"/></g><g id="F"><use transform="matrix(0.05,0,0,0.05,0,0)" xlink:href="#ay"/><use transform="matrix(0.05,0,0,0.05,10,0)" xlink:href="#ap"/><use transform="matrix(0.05,0,0,0.05,20,0)" xlink:href="#ap"/><use transform="matrix(0.05,0,0,0.05,30,0)" xlink:href="#an"/><use transform="matrix(0.05,0,0,0.05,35.95,0)" xlink:href="#az"/><use transform="matrix(0.05,0,0,0.05,45.95,0)" xlink:href="#aJ"/><use transform="matrix(0.05,0,0,0.05,54.95,0)" xlink:href="#aJ"/><use transform="matrix(0.05,0,0,0.05,63.95,0)" xlink:href="#at"/><use transform="matrix(0.05,0,0,0.05,73.95,0)" xlink:href="#au"/><use transform="matrix(0.05,0,0,0.05,77.9,0)" xlink:href="#ap"/></g><g id="G"><use transform="matrix(0.05,0,0,0.05,0,0)" xlink:href="#aJ"/><use transform="matrix(0.05,0,0,0.05,9,0)" xlink:href="#as"/><use transform="matrix(0.05,0,0,0.05,14,0)" xlink:href="#an"/><use transform="matrix(0.05,0,0,0.05,19.95,0)" xlink:href="#az"/><use transform="matrix(0.05,0,0,0.05,29.950000000000003,0)" xlink:href="#az"/><use transform="matrix(0.05,0,0,0.05,39.95,0)" xlink:href="#as"/></g><g id="H"><use transform="matrix(0.05,0,0,0.05,0,0)" xlink:href="#ar"/><use transform="matrix(0.05,0,0,0.05,9,0)" xlink:href="#au"/><use transform="matrix(0.05,0,0,0.05,12.949999999999998,0)" xlink:href="#as"/><use transform="matrix(0.05,0,0,0.05,17.95,0)" xlink:href="#aK"/></g><g id="I"><use transform="matrix(0.05,0,0,0.05,0,0)" xlink:href="#ar"/><use transform="matrix(0.05,0,0,0.05,9,0)" xlink:href="#ao"/><use transform="matrix(0.05,0,0,0.05,19,0)" xlink:href="#aq"/><use transform="matrix(0.05,0,0,0.05,29,0)" xlink:href="#ax"/><use transform="matrix(0.05,0,0,0.05,39,0)" xlink:href="#as"/><use transform="matrix(0.05,0,0,0.05,44,0)" xlink:href="#an"/><use transform="matrix(0.05,0,0,0.05,49.95,0)" xlink:href="#aK"/></g><g id="J"><use transform="matrix(0.05,0,0,0.05,0,0)" xlink:href="#aN"/><use transform="matrix(0.05,0,0,0.05,9,0)" xlink:href="#au"/><use transform="matrix(0.05,0,0,0.05,12.949999999999998,0)" xlink:href="#am"/><use transform="matrix(0.05,0,0,0.05,22.95,0)" xlink:href="#at"/><use transform="matrix(0.05,0,0,0.05,32.95,0)" xlink:href="#ar"/><use transform="matrix(0.05,0,0,0.05,41.95,0)" xlink:href="#ao"/><use transform="matrix(0.05,0,0,0.05,51.95,0)" xlink:href="#ap"/><use transform="matrix(0.05,0,0,0.05,61.95,0)" xlink:href="#az"/></g><path fill="#333" d="M127-220V0H93v-220H8v-28h204v28h-85" id="bb"/><g id="K"><use transform="matrix(0.05,0,0,0.05,0,0)" xlink:href="#bb"/><use transform="matrix(0.05,0,0,0.05,9.950000000000001,0)" xlink:href="#aK"/><use transform="matrix(0.05,0,0,0.05,18.950000000000003,0)" xlink:href="#am"/><use transform="matrix(0.05,0,0,0.05,28.950000000000003,0)" xlink:href="#az"/></g><path fill="#3a414a" d="M-5 72V49h209v23H-5" id="bc"/><g id="L"><use transform="matrix(0.05,0,0,0.05,0,0)" xlink:href="#aO"/><use transform="matrix(0.05,0,0,0.05,10,0)" xlink:href="#aP"/><use transform="matrix(0.05,0,0,0.05,19,0)" xlink:href="#aQ"/><use transform="matrix(0.05,0,0,0.05,29,0)" xlink:href="#aR"/><use transform="matrix(0.05,0,0,0.05,34.95,0)" xlink:href="#bc"/><use transform="matrix(0.05,0,0,0.05,44.95,0)" xlink:href="#aZ"/><use transform="matrix(0.05,0,0,0.05,54.95,0)" xlink:href="#ba"/><use transform="matrix(0.05,0,0,0.05,64.95,0)" xlink:href="#ba"/><use transform="matrix(0.05,0,0,0.05,74.95,0)" xlink:href="#aR"/><use transform="matrix(0.05,0,0,0.05,80.9,0)" xlink:href="#aQ"/><use transform="matrix(0.05,0,0,0.05,90.9,0)" xlink:href="#aP"/><use transform="matrix(0.05,0,0,0.05,99.9,0)" xlink:href="#aP"/></g><g id="M"><use transform="matrix(0.05,0,0,0.05,0,0)" xlink:href="#aU"/><use transform="matrix(0.05,0,0,0.05,10,0)" xlink:href="#aR"/><use transform="matrix(0.05,0,0,0.05,15.949999999999998,0)" xlink:href="#ba"/><use transform="matrix(0.05,0,0,0.05,25.950000000000003,0)" xlink:href="#aQ"/><use transform="matrix(0.05,0,0,0.05,35.95,0)" xlink:href="#aR"/></g><g id="N"><use transform="matrix(0.05,0,0,0.05,0,0)" xlink:href="#ao"/><use transform="matrix(0.05,0,0,0.05,10,0)" xlink:href="#an"/><use transform="matrix(0.05,0,0,0.05,15.949999999999998,0)" xlink:href="#ap"/><use transform="matrix(0.05,0,0,0.05,25.950000000000003,0)" xlink:href="#az"/><use transform="matrix(0.05,0,0,0.05,35.95,0)" xlink:href="#an"/><use transform="matrix(0.05,0,0,0.05,41.900000000000006,0)" xlink:href="#at"/><use transform="matrix(0.05,0,0,0.05,51.900000000000006,0)" xlink:href="#au"/><use transform="matrix(0.05,0,0,0.05,55.85,0)" xlink:href="#ap"/></g><g id="O"><use transform="matrix(0.05,0,0,0.05,0,0)" xlink:href="#ar"/><use transform="matrix(0.05,0,0,0.05,9,0)" xlink:href="#an"/><use transform="matrix(0.05,0,0,0.05,14.949999999999998,0)" xlink:href="#az"/><use transform="matrix(0.05,0,0,0.05,24.95,0)" xlink:href="#ay"/><use transform="matrix(0.05,0,0,0.05,34.95,0)" xlink:href="#as"/><use transform="matrix(0.05,0,0,0.05,39.95,0)" xlink:href="#au"/><use transform="matrix(0.05,0,0,0.05,43.900000000000006,0)" xlink:href="#ao"/><use transform="matrix(0.05,0,0,0.05,53.900000000000006,0)" xlink:href="#ax"/><use transform="matrix(0.05,0,0,0.05,63.900000000000006,0)" xlink:href="#at"/><use transform="matrix(0.05,0,0,0.05,73.9,0)" xlink:href="#ap"/><use transform="matrix(0.05,0,0,0.05,83.9,0)" xlink:href="#ay"/><use transform="matrix(0.05,0,0,0.05,93.9,0)" xlink:href="#as"/><use transform="matrix(0.05,0,0,0.05,98.9,0)" xlink:href="#az"/></g><g id="P"><use transform="matrix(0.05,0,0,0.05,0,0)" xlink:href="#aJ"/><use transform="matrix(0.05,0,0,0.05,9,0)" xlink:href="#as"/><use transform="matrix(0.05,0,0,0.05,14,0)" xlink:href="#ay"/><use transform="matrix(0.05,0,0,0.05,24,0)" xlink:href="#as"/><use transform="matrix(0.05,0,0,0.05,29,0)" xlink:href="#aq"/><use transform="matrix(0.05,0,0,0.05,39,0)" xlink:href="#aJ"/></g><path fill="#3a414a" d="M59-47c-2 24 18 29 38 22v24C64 9 27 4 27-40v-127H5v-23h24l9-43h21v43h35v23H59v120" id="bd"/><path fill="#3a414a" d="M210-169c-67 3-38 105-44 169h-31v-121c0-29-5-50-35-48C34-165 62-65 56 0H25l-1-190h30c1 10-1 24 2 32 10-44 99-50 107 0 11-21 27-35 58-36 85-2 47 119 55 194h-31v-121c0-29-5-49-35-48" id="be"/><g id="Q"><use transform="matrix(0.05,0,0,0.05,0,0)" xlink:href="#aU"/><use transform="matrix(0.05,0,0,0.05,10,0)" xlink:href="#aR"/><use transform="matrix(0.05,0,0,0.05,15.949999999999998,0)" xlink:href="#ba"/><use transform="matrix(0.05,0,0,0.05,25.950000000000003,0)" xlink:href="#aQ"/><use transform="matrix(0.05,0,0,0.05,35.95,0)" xlink:href="#aR"/><use transform="matrix(0.05,0,0,0.05,41.900000000000006,0)" xlink:href="#bc"/><use transform="matrix(0.05,0,0,0.05,51.900000000000006,0)" xlink:href="#aW"/><use transform="matrix(0.05,0,0,0.05,55.85,0)" xlink:href="#bd"/><use transform="matrix(0.05,0,0,0.05,60.85,0)" xlink:href="#aQ"/><use transform="matrix(0.05,0,0,0.05,70.85000000000001,0)" xlink:href="#be"/></g><g id="R"><use transform="matrix(0.05,0,0,0.05,0,0)" xlink:href="#ao"/><use transform="matrix(0.05,0,0,0.05,10,0)" xlink:href="#an"/><use transform="matrix(0.05,0,0,0.05,15.949999999999998,0)" xlink:href="#ap"/><use transform="matrix(0.05,0,0,0.05,25.950000000000003,0)" xlink:href="#at"/><use transform="matrix(0.05,0,0,0.05,35.95,0)" xlink:href="#am"/><use transform="matrix(0.05,0,0,0.05,45.95,0)" xlink:href="#an"/><use transform="matrix(0.05,0,0,0.05,51.900000000000006,0)" xlink:href="#ao"/><use transform="matrix(0.05,0,0,0.05,61.900000000000006,0)" xlink:href="#at"/><use transform="matrix(0.05,0,0,0.05,71.9,0)" xlink:href="#au"/><use transform="matrix(0.05,0,0,0.05,75.85000000000001,0)" xlink:href="#ap"/></g><g id="S"><use transform="matrix(0.05,0,0,0.05,0,0)" xlink:href="#ar"/><use transform="matrix(0.05,0,0,0.05,9,0)" xlink:href="#ao"/><use transform="matrix(0.05,0,0,0.05,19,0)" xlink:href="#aA"/><use transform="matrix(0.05,0,0,0.05,33.95,0)" xlink:href="#am"/><use transform="matrix(0.05,0,0,0.05,43.95,0)" xlink:href="#ao"/><use transform="matrix(0.05,0,0,0.05,53.95,0)" xlink:href="#aJ"/><use transform="matrix(0.05,0,0,0.05,62.95,0)" xlink:href="#au"/><use transform="matrix(0.05,0,0,0.05,66.9,0)" xlink:href="#as"/><use transform="matrix(0.05,0,0,0.05,71.9,0)" xlink:href="#az"/></g><path fill="#333" d="M145-31C134-9 116 4 85 4 32 4 16-35 15-94c0-59 17-99 70-100 32-1 48 14 60 33 0-11-1-24 2-32h30l-1 268h-32zM93-21c41 0 51-33 51-76s-8-73-50-73c-40 0-46 35-46 75s5 74 45 74" id="bf"/><g id="T"><use transform="matrix(0.05,0,0,0.05,0,0)" xlink:href="#bf"/><use transform="matrix(0.05,0,0,0.05,10,0)" xlink:href="#aq"/><use transform="matrix(0.05,0,0,0.05,20,0)" xlink:href="#ay"/><use transform="matrix(0.05,0,0,0.05,30,0)" xlink:href="#ax"/><use transform="matrix(0.05,0,0,0.05,40,0)" xlink:href="#as"/><use transform="matrix(0.05,0,0,0.05,45,0)" xlink:href="#au"/><use transform="matrix(0.05,0,0,0.05,48.95,0)" xlink:href="#as"/><use transform="matrix(0.05,0,0,0.05,53.95,0)" xlink:href="#aK"/></g><g id="U"><use transform="matrix(0.05,0,0,0.05,0,0)" xlink:href="#au"/><use transform="matrix(0.05,0,0,0.05,3.95,0)" xlink:href="#ax"/><use transform="matrix(0.05,0,0,0.05,13.949999999999998,0)" xlink:href="#as"/></g><g id="V"><use transform="matrix(0.05,0,0,0.05,0,0)" xlink:href="#aJ"/><use transform="matrix(0.05,0,0,0.05,9,0)" xlink:href="#aq"/><use transform="matrix(0.05,0,0,0.05,19,0)" xlink:href="#av"/><use transform="matrix(0.05,0,0,0.05,29,0)" xlink:href="#as"/><use transform="matrix(0.05,0,0,0.05,34,0)" xlink:href="#ao"/><use transform="matrix(0.05,0,0,0.05,44,0)" xlink:href="#as"/><use transform="matrix(0.05,0,0,0.05,49,0)" xlink:href="#ay"/><use transform="matrix(0.05,0,0,0.05,59,0)" xlink:href="#aM"/></g><g id="W"><use transform="matrix(0.05,0,0,0.05,0,0)" xlink:href="#ap"/><use transform="matrix(0.05,0,0,0.05,10,0)" xlink:href="#az"/><use transform="matrix(0.05,0,0,0.05,20,0)" xlink:href="#ar"/><use transform="matrix(0.05,0,0,0.05,29,0)" xlink:href="#au"/><use transform="matrix(0.05,0,0,0.05,32.95,0)" xlink:href="#aA"/><use transform="matrix(0.05,0,0,0.05,47.900000000000006,0)" xlink:href="#ay"/><use transform="matrix(0.05,0,0,0.05,57.900000000000006,0)" xlink:href="#aM"/></g><path fill="#3a414a" d="M117-194c89-4 53 116 60 194h-32v-121c0-31-8-49-39-48C34-167 62-67 57 0H25l-1-190h30c1 10-1 24 2 32 11-22 29-35 61-36" id="bg"/><path fill="#3a414a" d="M108 0H70L1-190h34L89-25l56-165h34" id="bh"/><path fill="#3a414a" d="M179-190L93 31C79 59 56 82 12 73V49c39 6 53-20 64-50L1-190h34L92-34l54-156h33" id="bi"/><g id="X"><use transform="matrix(0.05,0,0,0.05,0,0)" xlink:href="#aW"/><use transform="matrix(0.05,0,0,0.05,3.95,0)" xlink:href="#bg"/><use transform="matrix(0.05,0,0,0.05,13.949999999999998,0)" xlink:href="#bh"/><use transform="matrix(0.05,0,0,0.05,22.95,0)" xlink:href="#aQ"/><use transform="matrix(0.05,0,0,0.05,32.95,0)" xlink:href="#bg"/><use transform="matrix(0.05,0,0,0.05,42.95,0)" xlink:href="#bd"/><use transform="matrix(0.05,0,0,0.05,47.95,0)" xlink:href="#aU"/><use transform="matrix(0.05,0,0,0.05,57.95,0)" xlink:href="#aR"/><use transform="matrix(0.05,0,0,0.05,63.900000000000006,0)" xlink:href="#bi"/></g><g id="Y"><use transform="matrix(0.05,0,0,0.05,0,0)" xlink:href="#aM"/><use transform="matrix(0.05,0,0,0.05,3.95,0)" xlink:href="#ao"/><use transform="matrix(0.05,0,0,0.05,13.949999999999998,0)" xlink:href="#ar"/><use transform="matrix(0.05,0,0,0.05,22.95,0)" xlink:href="#ay"/><use transform="matrix(0.05,0,0,0.05,32.95,0)" xlink:href="#as"/><use transform="matrix(0.05,0,0,0.05,37.95,0)" xlink:href="#au"/><use transform="matrix(0.05,0,0,0.05,41.900000000000006,0)" xlink:href="#ao"/><use transform="matrix(0.05,0,0,0.05,51.900000000000006,0)" xlink:href="#ax"/></g><g id="Z"><use transform="matrix(0.05,0,0,0.05,0,0)" xlink:href="#aF"/><use transform="matrix(0.05,0,0,0.05,5.95,0)" xlink:href="#am"/><use transform="matrix(0.05,0,0,0.05,15.949999999999998,0)" xlink:href="#an"/><use transform="matrix(0.05,0,0,0.05,21.9,0)" xlink:href="#ao"/><use transform="matrix(0.05,0,0,0.05,31.899999999999995,0)" xlink:href="#at"/><use transform="matrix(0.05,0,0,0.05,41.9,0)" xlink:href="#aJ"/><use transform="matrix(0.05,0,0,0.05,50.9,0)" xlink:href="#au"/><use transform="matrix(0.05,0,0,0.05,54.85,0)" xlink:href="#aN"/><use transform="matrix(0.05,0,0,0.05,63.85,0)" xlink:href="#at"/><use transform="matrix(0.05,0,0,0.05,73.85,0)" xlink:href="#au"/><use transform="matrix(0.05,0,0,0.05,77.8,0)" xlink:href="#ap"/><use transform="matrix(0.05,0,0,0.05,87.8,0)" xlink:href="#aI"/></g><g id="aa"><use transform="matrix(0.05,0,0,0.05,0,0)" xlink:href="#aB"/><use transform="matrix(0.05,0,0,0.05,12,0)" xlink:href="#aC"/></g><path fill="#3a414a" d="M96-169c-40 0-48 33-48 73s9 75 48 75c24 0 41-14 43-38l32 2c-6 37-31 61-74 61-59 0-76-41-82-99-10-93 101-131 147-64 4 7 5 14 7 22l-32 3c-4-21-16-35-41-35" id="bj"/><g id="ab"><use transform="matrix(0.05,0,0,0.05,0,0)" xlink:href="#ba"/><use transform="matrix(0.05,0,0,0.05,10,0)" xlink:href="#aW"/><use transform="matrix(0.05,0,0,0.05,13.949999999999998,0)" xlink:href="#aP"/><use transform="matrix(0.05,0,0,0.05,22.95,0)" xlink:href="#bj"/><use transform="matrix(0.05,0,0,0.05,31.950000000000003,0)" xlink:href="#aU"/><use transform="matrix(0.05,0,0,0.05,41.95,0)" xlink:href="#aO"/><use transform="matrix(0.05,0,0,0.05,51.95,0)" xlink:href="#bg"/><use transform="matrix(0.05,0,0,0.05,61.95,0)" xlink:href="#bd"/></g><g id="ac"><use transform="matrix(0.05,0,0,0.05,0,0)" xlink:href="#ap"/><use transform="matrix(0.05,0,0,0.05,10,0)" xlink:href="#au"/><use transform="matrix(0.05,0,0,0.05,13.949999999999998,0)" xlink:href="#aJ"/><use transform="matrix(0.05,0,0,0.05,22.95,0)" xlink:href="#ar"/><use transform="matrix(0.05,0,0,0.05,31.950000000000003,0)" xlink:href="#ao"/><use transform="matrix(0.05,0,0,0.05,41.95,0)" xlink:href="#aq"/><use transform="matrix(0.05,0,0,0.05,51.95,0)" xlink:href="#ax"/><use transform="matrix(0.05,0,0,0.05,61.95,0)" xlink:href="#as"/><use transform="matrix(0.05,0,0,0.05,66.95,0)" xlink:href="#at"/><use transform="matrix(0.05,0,0,0.05,76.95,0)" xlink:href="#au"/><use transform="matrix(0.05,0,0,0.05,80.9,0)" xlink:href="#ap"/></g><path fill="#333" d="M190 0L58-211 59 0H30v-248h39L202-35l-2-213h31V0h-41" id="bk"/><g id="ad"><use transform="matrix(0.05,0,0,0.05,0,0)" xlink:href="#bk"/><use transform="matrix(0.05,0,0,0.05,12.950000000000001,0)" xlink:href="#aq"/><use transform="matrix(0.05,0,0,0.05,22.950000000000003,0)" xlink:href="#aM"/><use transform="matrix(0.05,0,0,0.05,26.900000000000002,0)" xlink:href="#aM"/><use transform="matrix(0.05,0,0,0.05,30.85,0)" xlink:href="#ay"/><use transform="matrix(0.05,0,0,0.05,40.85,0)" xlink:href="#av"/><use transform="matrix(0.05,0,0,0.05,50.85,0)" xlink:href="#aM"/><use transform="matrix(0.05,0,0,0.05,54.800000000000004,0)" xlink:href="#az"/></g><g id="ae"><use transform="matrix(0.05,0,0,0.05,0,0)" xlink:href="#ax"/><use transform="matrix(0.05,0,0,0.05,10,0)" xlink:href="#aq"/><use transform="matrix(0.05,0,0,0.05,20,0)" xlink:href="#aM"/><use transform="matrix(0.05,0,0,0.05,23.95,0)" xlink:href="#aM"/><use transform="matrix(0.05,0,0,0.05,27.899999999999995,0)" xlink:href="#ay"/><use transform="matrix(0.05,0,0,0.05,37.9,0)" xlink:href="#av"/><use transform="matrix(0.05,0,0,0.05,47.9,0)" xlink:href="#aM"/><use transform="matrix(0.05,0,0,0.05,51.85,0)" xlink:href="#az"/></g><g id="af"><use transform="matrix(0.05,0,0,0.05,0,0)" xlink:href="#ap"/><use transform="matrix(0.05,0,0,0.05,10,0)" xlink:href="#au"/><use transform="matrix(0.05,0,0,0.05,13.949999999999998,0)" xlink:href="#aJ"/><use transform="matrix(0.05,0,0,0.05,22.95,0)" xlink:href="#ar"/><use transform="matrix(0.05,0,0,0.05,31.950000000000003,0)" xlink:href="#ao"/><use transform="matrix(0.05,0,0,0.05,41.95,0)" xlink:href="#aq"/><use transform="matrix(0.05,0,0,0.05,51.95,0)" xlink:href="#ax"/><use transform="matrix(0.05,0,0,0.05,61.95,0)" xlink:href="#as"/><use transform="matrix(0.05,0,0,0.05,66.95,0)" xlink:href="#at"/><use transform="matrix(0.05,0,0,0.05,76.95,0)" xlink:href="#as"/><use transform="matrix(0.05,0,0,0.05,81.95,0)" xlink:href="#aK"/><use transform="matrix(0.05,0,0,0.05,90.95,0)" xlink:href="#am"/><use transform="matrix(0.05,0,0,0.05,100.95,0)" xlink:href="#az"/></g><g id="ag"><use transform="matrix(0.05,0,0,0.05,0,0)" xlink:href="#ap"/><use transform="matrix(0.05,0,0,0.05,10,0)" xlink:href="#au"/><use transform="matrix(0.05,0,0,0.05,13.949999999999998,0)" xlink:href="#aJ"/><use transform="matrix(0.05,0,0,0.05,22.95,0)" xlink:href="#ar"/><use transform="matrix(0.05,0,0,0.05,31.950000000000003,0)" xlink:href="#ao"/><use transform="matrix(0.05,0,0,0.05,41.95,0)" xlink:href="#aq"/><use transform="matrix(0.05,0,0,0.05,51.95,0)" xlink:href="#ax"/><use transform="matrix(0.05,0,0,0.05,61.95,0)" xlink:href="#as"/><use transform="matrix(0.05,0,0,0.05,66.95,0)" xlink:href="#at"/><use transform="matrix(0.05,0,0,0.05,76.95,0)" xlink:href="#aD"/><use transform="matrix(0.05,0,0,0.05,85.95,0)" xlink:href="#ay"/><use transform="matrix(0.05,0,0,0.05,95.95,0)" xlink:href="#aM"/><use transform="matrix(0.05,0,0,0.05,99.9,0)" xlink:href="#aq"/><use transform="matrix(0.05,0,0,0.05,109.9,0)" xlink:href="#az"/></g><g id="ah"><use transform="matrix(0.05,0,0,0.05,0,0)" xlink:href="#aJ"/><use transform="matrix(0.05,0,0,0.05,9,0)" xlink:href="#as"/><use transform="matrix(0.05,0,0,0.05,14,0)" xlink:href="#ay"/><use transform="matrix(0.05,0,0,0.05,24,0)" xlink:href="#an"/><use transform="matrix(0.05,0,0,0.05,29.950000000000003,0)" xlink:href="#as"/><use transform="matrix(0.05,0,0,0.05,34.95,0)" xlink:href="#at"/><use transform="matrix(0.05,0,0,0.05,44.95,0)" xlink:href="#ap"/><use transform="matrix(0.05,0,0,0.05,54.95,0)" xlink:href="#ay"/><use transform="matrix(0.05,0,0,0.05,64.95,0)" xlink:href="#as"/><use transform="matrix(0.05,0,0,0.05,69.95,0)" xlink:href="#az"/></g><path fill="#333" d="M30-248c118-7 216 8 213 122C240-48 200 0 122 0H30v-248zM63-27c89 8 146-16 146-99s-60-101-146-95v194" id="bl"/><g id="ai"><use transform="matrix(0.05,0,0,0.05,0,0)" xlink:href="#bl"/><use transform="matrix(0.05,0,0,0.05,12.950000000000001,0)" xlink:href="#ay"/><use transform="matrix(0.05,0,0,0.05,22.950000000000003,0)" xlink:href="#as"/><use transform="matrix(0.05,0,0,0.05,27.950000000000003,0)" xlink:href="#az"/></g><g id="aj"><use transform="matrix(0.05,0,0,0.05,0,0)" xlink:href="#az"/><use transform="matrix(0.05,0,0,0.05,10,0)" xlink:href="#ax"/><use transform="matrix(0.05,0,0,0.05,20,0)" xlink:href="#ap"/><use transform="matrix(0.05,0,0,0.05,30,0)" xlink:href="#at"/><use transform="matrix(0.05,0,0,0.05,40,0)" xlink:href="#ap"/><use transform="matrix(0.05,0,0,0.05,50,0)" xlink:href="#ay"/><use transform="matrix(0.05,0,0,0.05,60,0)" xlink:href="#as"/><use transform="matrix(0.05,0,0,0.05,65,0)" xlink:href="#az"/></g><g id="ak"><use transform="matrix(0.05,0,0,0.05,0,0)" xlink:href="#ar"/><use transform="matrix(0.05,0,0,0.05,9,0)" xlink:href="#ao"/><use transform="matrix(0.05,0,0,0.05,19,0)" xlink:href="#ax"/><use transform="matrix(0.05,0,0,0.05,29,0)" xlink:href="#ap"/><use transform="matrix(0.05,0,0,0.05,39,0)" xlink:href="#au"/><use transform="matrix(0.05,0,0,0.05,42.95,0)" xlink:href="#as"/><use transform="matrix(0.05,0,0,0.05,47.95,0)" xlink:href="#au"/><use transform="matrix(0.05,0,0,0.05,51.900000000000006,0)" xlink:href="#ao"/><use transform="matrix(0.05,0,0,0.05,61.900000000000006,0)" xlink:href="#ax"/><use transform="matrix(0.05,0,0,0.05,71.9,0)" xlink:href="#aJ"/></g><path fill="#333" d="M141 0L90-78 38 0H4l68-98-65-92h35l48 74 47-74h35l-64 92 68 98h-35" id="bm"/><g id="al"><use transform="matrix(0.05,0,0,0.05,0,0)" xlink:href="#as"/><use transform="matrix(0.05,0,0,0.05,5,0)" xlink:href="#az"/><use transform="matrix(0.05,0,0,0.05,15,0)" xlink:href="#bm"/><use transform="matrix(0.05,0,0,0.05,24,0)" xlink:href="#as"/></g></defs></g></svg>